Run_20002
nRows=4
nColumns=164

# SIMM Motion File Header:
name Run_20002
datacolumns 164
datarows 4
otherdata 1
range 4.28333300 4.30833300
endheader
time	pelvis_tilt	pelvis_list	pelvis_rotation	pelvis_tx	pelvis_ty	pelvis_tz	hip_flexion_r	hip_adduction_r	hip_rotation_r	knee_angle_r	ankle_angle_r	hip_flexion_l	hip_adduction_l	hip_rotation_l	knee_angle_l	ankle_angle_l	lumbar_extension	lumbar_bending	lumbar_rotation	arm_flex_r	arm_add_r	arm_rot_r	elbow_flex_r	pro_sup_r	arm_flex_l	arm_add_l	arm_rot_l	elbow_flex_l	pro_sup_l	subtalar_angle_r	mtp_angle_r	subtalar_angle_l	mtp_angle_l	wrist_flex_r	wrist_dev_r	wrist_flex_l	wrist_dev_l	LASI_tx	LASI_ty	LASI_tz	RASI_tx	RASI_ty	RASI_tz	LPSI_tx	LPSI_ty	LPSI_tz	RPSI_tx	RPSI_ty	RPSI_tz	RTH1_tx	RTH1_ty	RTH1_tz	RTH2_tx	RTH2_ty	RTH2_tz	RTH3_tx	RTH3_ty	RTH3_tz	LTH1_tx	LTH1_ty	LTH1_tz	LTH2_tx	LTH2_ty	LTH2_tz	LTH3_tx	LTH3_ty	LTH3_tz	RTB1_tx	RTB1_ty	RTB1_tz	RTB2_tx	RTB2_ty	RTB2_tz	RTB3_tx	RTB3_ty	RTB3_tz	LTB1_tx	LTB1_ty	LTB1_tz	LTB2_tx	LTB2_ty	LTB2_tz	LTB3_tx	LTB3_ty	LTB3_tz	RCAL_tx	RCAL_ty	RCAL_tz	RTOE_tx	RTOE_ty	RTOE_tz	RMT5_tx	RMT5_ty	RMT5_tz	LCAL_tx	LCAL_ty	LCAL_tz	LTOE_tx	LTOE_ty	LTOE_tz	LMT5_tx	LMT5_ty	LMT5_tz	LACR_tx	LACR_ty	LACR_tz	RACR_tx	RACR_ty	RACR_tz	CLAV_tx	CLAV_ty	CLAV_tz	C7_tx	C7_ty	C7_tz	RUA1_tx	RUA1_ty	RUA1_tz	RUA2_tx	RUA2_ty	RUA2_tz	RUA3_tx	RUA3_ty	RUA3_tz	RLEL_tx	RLEL_ty	RLEL_tz	RMEL_tx	RMEL_ty	RMEL_tz	LUA1_tx	LUA1_ty	LUA1_tz	LUA2_tx	LUA2_ty	LUA2_tz	LUA3_tx	LUA3_ty	LUA3_tz	LLEL_tx	LLEL_ty	LLEL_tz	LMEL_tx	LMEL_ty	LMEL_tz	RFAsuperior_tx	RFAsuperior_ty	RFAsuperior_tz	RFAradius_tx	RFAradius_ty	RFAradius_tz	RFAulna_tx	RFAulna_ty	RFAulna_tz	LFAsuperior_tx	LFAsuperior_ty	LFAsuperior_tz	LFAradius_tx	LFAradius_ty	LFAradius_tz	LFAulna_tx	LFAulna_ty	LFAulna_tz
      4.28333300	      1.96767266	     -6.71156383	     -5.37765518	      0.97418730	      1.03604473	     -0.30798091	     22.34199349	     13.77005753	      0.51853877	    -41.80154052	     19.79000649	     -1.84908820	     -5.26285148	     -3.69623770	    -70.93422697	      3.25487253	    -16.00429861	      7.41028328	     -2.00889238	    -30.06482785	    -27.36255587	      3.65343185	     96.50779077	    104.34553735	    -17.47328925	    -15.73930625	     12.11872063	    119.03532380	     94.97528002	      0.00000000	      0.00000000	      0.00000000	      0.00000000	      0.00000000	      0.00000000	      0.00000000	      0.00000000	      0.98254894	      1.03500046	     -0.44500276	      0.96114620	      1.05789881	     -0.18664297	      0.79406431	      1.06796637	     -0.36961844	      0.78483305	      1.06872374	     -0.28826821	      0.92429884	      0.88872038	     -0.13121484	      1.00860996	      0.79846470	     -0.13999604	      0.97535002	      0.67152883	     -0.18343891	      0.91495907	      0.81569740	     -0.48545576	      0.95599085	      0.69186682	     -0.46904591	      0.87929003	      0.58689842	     -0.45286941	      1.07558387	      0.39661027	     -0.27885820	      1.04250180	      0.32972816	     -0.21597426	      1.02897549	      0.23682855	     -0.29283150	      0.79911407	      0.39097857	     -0.39386232	      0.70741891	      0.38260051	     -0.45111854	      0.60753008	      0.32037208	     -0.39327894	      0.87919423	      0.10288089	     -0.32027276	      1.11345913	      0.07340026	     -0.32835619	      1.03925628	      0.05100264	     -0.23406892	      0.44634535	      0.36914354	     -0.37723995	      0.50723928	      0.14388065	     -0.38811507	      0.45913499	      0.20921824	     -0.46941234	      0.98147771	      1.51656966	     -0.48878002	      0.93330191	      1.51966212	     -0.14361924	      1.00661877	      1.46665182	     -0.27309046	      0.88278935	      1.55429656	     -0.32317333	      0.88700250	      1.42810409	     -0.06453734	      0.85406684	      1.34423198	     -0.06829256	      0.78398722	      1.36793364	     -0.04101769	      0.70950124	      1.25273815	     -0.00005865	      0.68227522	      1.25385916	     -0.07811277	      0.96537944	      1.42052712	     -0.56140423	      0.96454706	      1.34769132	     -0.54799235	      0.86975551	      1.34675277	     -0.57054183	      0.85566890	      1.18342351	     -0.61463004	      0.79279375	      1.18673759	     -0.55098821	      0.79273138	      1.18397428	     -0.00468882	      0.92080910	      1.09487358	     -0.09908023	      0.88808652	      1.05191248	     -0.04958021	      0.94279170	      1.17804903	     -0.56860298	      1.05004885	      1.21046026	     -0.42315455	      1.05433411	      1.13866957	     -0.43837922
      4.29166700	      2.52628632	     -7.09831803	     -5.32874864	      0.97198276	      1.03319723	     -0.30847333	     21.40652552	     13.95056845	      0.04067510	    -42.94442855	     21.18041035	     -0.64751637	     -5.66356069	     -3.21022032	    -73.71614372	      4.14669247	    -17.03933148	      7.88546673	     -1.20887569	    -27.48547788	    -27.69250443	      4.27409076	     95.44144235	    105.19986443	    -17.08460305	    -15.67584840	     12.28971484	    116.57228427	     95.50161434	      0.00000000	      0.00000000	      0.00000000	      0.00000000	      0.00000000	      0.00000000	      0.00000000	      0.00000000	      0.98042492	      1.03147107	     -0.44588627	      0.95937617	      1.05593599	     -0.18635160	      0.79196010	      1.06378237	     -0.37004856	      0.78289967	      1.06480181	     -0.28911901	      0.92130313	      0.88501052	     -0.13128146	      1.00403598	      0.79389113	     -0.13847474	      0.97115936	      0.66787920	     -0.18368114	      0.91770412	      0.81163414	     -0.48531672	      0.96355674	      0.68878513	     -0.46851226	      0.88972656	      0.58276035	     -0.45251789	      1.06813472	      0.39212165	     -0.27722626	      1.03254491	      0.32575945	     -0.21497004	      1.01629388	      0.23388381	     -0.29232694	      0.81180522	      0.38960895	     -0.39327772	      0.72013904	      0.38201304	     -0.45152881	      0.61889746	      0.32152051	     -0.39422267	      0.86276008	      0.10310301	     -0.32032281	      1.09697757	      0.07274564	     -0.32833111	      1.02256606	      0.05072094	     -0.23383394	      0.45712999	      0.37264493	     -0.37875691	      0.51762432	      0.14729342	     -0.39020714	      0.47028677	      0.21312961	     -0.47163206	      0.97960473	      1.51176974	     -0.48930813	      0.93375912	      1.51430315	     -0.14315811	      1.00684404	      1.46166022	     -0.27358631	      0.88267892	      1.55034834	     -0.32277551	      0.89018417	      1.42032933	     -0.06417788	      0.86018012	      1.33501237	     -0.06706708	      0.79035903	      1.35674105	     -0.03744171	      0.72095944	      1.23916327	      0.00516773	      0.69056150	      1.23925484	     -0.07195967	      0.96208288	      1.41574300	     -0.56177575	      0.96120953	      1.34279536	     -0.54844225	      0.86631813	      1.34240858	     -0.57023839	      0.85147185	      1.17919579	     -0.61492852	      0.78936840	      1.18240336	     -0.55076707	      0.80591486	      1.17209564	     -0.00152051	      0.93273487	      1.08525634	     -0.09823275	      0.90255362	      1.04229723	     -0.04709313	      0.93871478	      1.16999969	     -0.56974538	      1.04815454	      1.19498929	     -0.42394191	      1.05067132	      1.12368403	     -0.44148864
      4.30000000	      2.95461657	     -7.55167661	     -5.26716981	      0.96985356	      1.03083062	     -0.30875550	     20.44798717	     14.23375591	     -0.36159144	    -43.78743536	     22.39134949	      0.71440914	     -6.20095995	     -2.74082116	    -76.27300908	      4.89954382	    -17.91264794	      8.41157869	     -0.36800050	    -24.87906754	    -27.91175858	      4.77813569	     94.36576537	    105.97360180	    -16.71582063	    -15.58735073	     12.45951863	    113.98301044	     95.87326608	      0.00000000	      0.00000000	      0.00000000	      0.00000000	      0.00000000	      0.00000000	      0.00000000	      0.00000000	      0.97840405	      1.02844423	     -0.44665042	      0.95754719	      1.05472005	     -0.18568026	      0.79003760	      1.06050813	     -0.37013742	      0.78092271	      1.06190907	     -0.28947692	      0.91836848	      0.88222228	     -0.13106113	      0.99905483	      0.78988985	     -0.13705139	      0.96612018	      0.66489059	     -0.18382345	      0.92034697	      0.80795252	     -0.48517596	      0.97127850	      0.68610559	     -0.46802258	      0.90053304	      0.57911562	     -0.45233487	      1.05978541	      0.38809631	     -0.27582620	      1.02212388	      0.32220785	     -0.21428806	      1.00334620	      0.23150911	     -0.29206472	      0.82476864	      0.38923807	     -0.39328851	      0.73337273	      0.38141896	     -0.45188951	      0.63113556	      0.32221224	     -0.39521216	      0.84632989	      0.10339269	     -0.32033648	      1.08047682	      0.07210258	     -0.32799893	      1.00586365	      0.05049132	     -0.23362455	      0.46869057	      0.37523022	     -0.38026855	      0.52949304	      0.14995305	     -0.39201306	      0.48247878	      0.21592793	     -0.47350797	      0.97764229	      1.50764889	     -0.48974396	      0.93461345	      1.50938199	     -0.14271278	      1.00697970	      1.45679830	     -0.27423646	      0.88221058	      1.54667923	     -0.32239281	      0.89265498	      1.41424466	     -0.06389681	      0.86641168	      1.32669300	     -0.06649566	      0.79682297	      1.34651155	     -0.03483021	      0.73324107	      1.22637594	      0.01010444	      0.70084324	      1.22537108	     -0.06633919	      0.95844913	      1.41204713	     -0.56206693	      0.95774750	      1.33897252	     -0.54916803	      0.86258119	      1.33901150	     -0.56953726	      0.84729112	      1.17574418	     -0.61510964	      0.78580675	      1.17875572	     -0.55040883	      0.82030682	      1.16140606	      0.00113220	      0.94568677	      1.07677781	     -0.09751932	      0.91785695	      1.03372563	     -0.04503883	      0.93440269	      1.16287210	     -0.57042859	      1.04611904	      1.17961779	     -0.42512405	      1.04654746	      1.10890753	     -0.44490274
      4.30833300	      3.21277176	     -8.01740061	     -5.23472732	      0.96773728	      1.02876926	     -0.30874091	     19.57015315	     14.59192574	     -0.62563844	    -44.44235043	     23.41204196	      2.28229745	     -6.80215418	     -2.28728871	    -78.60687764	      5.53387714	    -18.57665092	      8.93358972	      0.53490480	    -22.32802180	    -28.04155734	      5.16724389	     93.41360791	    106.55400256	    -16.36874073	    -15.51322966	     12.63833848	    111.38857638	     96.13107238	      0.00000000	      0.00000000	      0.00000000	      0.00000000	      0.00000000	      0.00000000	      0.00000000	      0.00000000	      0.97648177	      1.02583809	     -0.44710102	      0.95558649	      1.05367914	     -0.18472592	      0.78822219	      1.05791624	     -0.36995317	      0.77879708	      1.05982258	     -0.28941678	      0.91540170	      0.88035656	     -0.13054513	      0.99399379	      0.78666456	     -0.13586771	      0.96052806	      0.66251136	     -0.18361374	      0.92294445	      0.80472842	     -0.48485679	      0.97899824	      0.68398830	     -0.46766534	      0.91154601	      0.57587678	     -0.45215512	      1.05061276	      0.38470811	     -0.27466065	      1.01143069	      0.31926120	     -0.21383353	      0.99019916	      0.22965006	     -0.29179847	      0.83798339	      0.38969909	     -0.39358785	      0.74707128	      0.38080352	     -0.45211399	      0.64415236	      0.32251515	     -0.39610168	      0.82997327	      0.10380168	     -0.32030767	      1.06400837	      0.07143936	     -0.32753827	      0.98919365	      0.05025338	     -0.23338062	      0.48090743	      0.37683009	     -0.38176840	      0.54266373	      0.15178360	     -0.39351055	      0.49574168	      0.21760425	     -0.47505033	      0.97549319	      1.50427197	     -0.49008244	      0.93572612	      1.50495358	     -0.14221911	      1.00688687	      1.45248591	     -0.27496406	      0.88157483	      1.54353203	     -0.32175630	      0.89475368	      1.40929639	     -0.06361497	      0.87270161	      1.31943497	     -0.06635582	      0.80320323	      1.33725879	     -0.03309832	      0.74610184	      1.21469363	      0.01474217	      0.71249255	      1.21246713	     -0.06112944	      0.95462764	      1.40923865	     -0.56229158	      0.95415995	      1.33607734	     -0.55008651	      0.85863336	      1.33641074	     -0.56853690	      0.84314786	      1.17316811	     -0.61520489	      0.78209968	      1.17590664	     -0.55006050	      0.83547680	      1.15217269	      0.00333706	      0.95953672	      1.06991006	     -0.09705522	      0.93384195	      1.02654588	     -0.04362136	      0.92999517	      1.15699405	     -0.57054124	      1.04390060	      1.16476384	     -0.42666913	      1.04192928	      1.09487323	     -0.44875635
